<?xml version="1.0" encoding="utf-8" ?>
<svg baseProfile="full" height="200mm" version="1.1" viewBox="0,0,200,200" width="200mm" xmlns="http://www.w3.org/2000/svg" xmlns:ev="http://www.w3.org/2001/xml-events" xmlns:xlink="http://www.w3.org/1999/xlink"><defs /><rect fill="#1a1a1a" height="200" width="200" x="0" y="0" /><text alignment-baseline="middle" fill="#e1ed5e" style="dominant-baseline: central; font-size:9.0px; font-family:Arial;" text-anchor="middle" x="100.0" y="100.0">2024</text><line stroke="#e1ed5e" stroke-width="0.3" x1="100.0" x2="100.0" y1="15.0" y2="10.0" /><path d="M 100.0 14.0 a86.0,86.0 0 0,1 42.35913384403234,11.155469271406648" fill="none" id="id25" stroke="none" /><text fill="#e1ed5e" style="font-size:6.75px; font-family:Arial;" text-anchor="middle"><textPath startOffset="22.145653131862478" xlink:href="#id25">January</textPath></text><line stroke="#e1ed5e" stroke-width="0.3" x1="143.13028292997686" x2="145.6673583964461" y1="26.7553504044142" y2="22.446841604673864" /><path d="M 143.63769802327073 25.89364864446614 a86.0,86.0 0 0,1 29.32050498858742,28.57503671076993" fill="none" id="id26" stroke="none" /><text fill="#e1ed5e" style="font-size:6.75px; font-family:Arial;" text-anchor="middle"><textPath startOffset="20.669276256404974" xlink:href="#id26">February</textPath></text><line stroke="#e1ed5e" stroke-width="0.3" x1="172.87174338648825" x2="177.1583165268699" y1="56.24261187166439" y2="53.66864786411523" /><path d="M 173.72905801456457 55.72781907015455 a86.0,86.0 0 0,1 12.242430191666344,42.057860355516425" fill="none" id="id27" stroke="none" /><text fill="#e1ed5e" style="font-size:6.75px; font-family:Arial;" text-anchor="middle"><textPath startOffset="22.145653131862474" xlink:href="#id27">March</textPath></text><line stroke="#e1ed5e" stroke-width="0.3" x1="184.99686870605535" x2="189.99668451229388" y1="99.2704041080226" y2="99.22748670261217" /><path d="M 185.99683186730306 99.26182062694052 a86.0,86.0 0 0,1 -10.086455211305974,41.156179273409016" fill="none" id="id28" stroke="none" /><text fill="#e1ed5e" style="font-size:6.75px; font-family:Arial;" text-anchor="middle"><textPath startOffset="21.40746469413373" xlink:href="#id28">April</textPath></text><path d="M 118.70294669586154 109.54985784667822 l 44.61001328416068 22.778190641821602 a71.08891348520311,71.08891348520311 0 0,0 -0.5642832506343465,1.0820875366268639 l -44.21242196455139 -23.540624421552966" fill="#ff9e0e" stroke="none" /><line stroke="#e1ed5e" stroke-width="0.3" x1="174.33088141563837" x2="178.70328620479359" y1="141.23008692659167" y2="143.65538615756765" /><path d="M 175.20536237346943 141.71514677278685 a86.0,86.0 0 0,1 -30.301960400862466,31.631185727798858" fill="none" id="id29" stroke="none" /><text fill="#e1ed5e" style="font-size:6.75px; font-family:Arial;" text-anchor="middle"><textPath startOffset="22.145653131862474" xlink:href="#id29">May</textPath></text><path d="M 118.36410011445183 110.18625677009912 l 46.33992831812967 25.70397708652147 a73.9913520736527,73.9913520736527 0 0,0 -0.6256378764398558,1.105442180205751 l -45.89185707666844 -26.495676036826342" fill="#d3ff1c" stroke="none" /><path d="M 117.21940702142032 112.02048342749411 l 45.813889881418284 31.9816532232249 a76.87252141220523,76.87252141220523 0 0,0 -0.7646432886162847,1.075566544341294 l -45.258131494272035 -32.763396994275695" fill="#57ff2a" stroke="none" /><path d="M 117.01052211995028 112.31430620078461 l 39.417408845844854 28.53516422050119 a69.66197403734726,69.66197403734726 0 0,0 -0.7095502646853515,0.962641207119688 l -38.92175656157567 -29.207611736889756" fill="#ff5307" stroke="none" /><path d="M 116.57777611688842 112.89097897827486 l 41.1315653669393 31.984154011380987 a73.10366376137611,73.10366376137611 0 0,0 -0.7788449345958,0.9840451320051411 l -40.57645400170193 -32.68551908730081" fill="#fcff18" stroke="none" /><path d="M 115.41159269507618 114.26474011684316 l 35.277820171275344 32.65262368325797 a69.0699326964091,69.0699326964091 0 0,0 -0.8128681395307935,0.8632377951062559 l -34.71209619800829 -33.253402938308724" fill="#ff3204" stroke="none" /><path d="M 115.16444852881244 114.52719865689866 l 38.57330708487177 36.95235562380004 a74.41700670771066,74.41700670771066 0 0,0 -0.8916333860242343,0.9148944026749463 l -37.93328689769673 -37.60907271854273" fill="#bfff1e" stroke="none" /><path d="M 113.86319453409587 115.77377054828091 l 36.37673444454135 41.39004621284889 a76.10356371733545,76.10356371733545 0 0,0 -0.9886958973935298,0.8540119681112057 l -35.66085906738496 -42.00840231342481" fill="#77ff27" stroke="none" /><line stroke="#e1ed5e" stroke-width="0.3" x1="143.1302829299769" x2="145.66735839644613" y1="173.24464959558577" y2="177.55315839532614" /><path d="M 143.63769802327073 174.10635135553383 a86.0,86.0 0 0,1 -40.68552437913181,11.842963189579606" fill="none" id="id30" stroke="none" /><text fill="#e1ed5e" style="font-size:6.75px; font-family:Arial;" text-anchor="middle"><textPath startOffset="21.407464694133747" xlink:href="#id30">June</textPath></text><path d="M 110.02825361518725 118.45085714620011 l 26.477771338131728 48.71611700862413 a76.44666294225783,76.44666294225783 0 0,0 -1.1583896735248593,0.6167772545941524 l -25.637592848820315 -49.16346473094085" fill="#69ff28" stroke="none" /><path d="M 109.71004243097381 118.62028667847754 l 28.888071720410014 55.39668655891843 a83.47650413900098,83.47650413900098 0 0,0 -1.2762872907403184,0.6516813845589897 l -27.932857207956115 -55.88442589515026" fill="#4ae5ff" stroke="none" /><path d="M 107.407793817531 119.65005319985036 l 22.223381452592985 58.95015959955109 a84.0,84.0 0 0,0 -1.353643393383492,0.49707660396511244 l -21.208148907555366 -59.32296705252492" fill="#4dd2ff" stroke="none" /><path d="M 107.06938296918513 119.77432235084164 l 20.945727895400836 58.588928776681456 a83.22046361340637,83.22046361340637 0 0,0 -1.349337500385817,0.46936962632097307 l -19.93688462297 -58.93985683557102" fill="#49eeff" stroke="none" /><path d="M 104.29559338865022 120.5559693870025 l 10.82850506539095 51.8183167008555 a73.93764697888788,73.93764697888788 0 0,0 -1.2446294313622934,0.2489607441526438 l -9.937379148497696 -51.996566841671005" fill="#d5ff1c" stroke="none" /><line stroke="#e1ed5e" stroke-width="0.3" x1="101.45913802915013" x2="101.54496967792366" y1="184.9874750549273" y2="189.98673829345242" /><path d="M 101.47630435890484 185.9873277026323 a86.0,86.0 0 0,1 -42.54439059252881,-10.42667462771756" fill="none" id="id31" stroke="none" /><text fill="#e1ed5e" style="font-size:6.75px; font-family:Arial;" text-anchor="middle"><textPath startOffset="22.145653131862474" xlink:href="#id31">July</textPath></text><path d="M 99.63950707515114 120.99690560180557 l -0.9161768957884009 53.362711080918174 a74.37057535768116,74.37057535768116 0 0,0 -1.276293580181272,-0.03287279530045684 l 1.832083790040417 -53.33912056826767" fill="#c2ff1e" stroke="none" /><path d="M 99.27912038922189 120.98762331915562 l -1.8169876601682884 52.89961321836315 a73.93080882444198,73.93080882444198 0 0,0 -1.26799870650039,-0.054453320319771625 l 2.724812127269517 -52.86062732961755" fill="#d5ff1c" stroke="none" /><path d="M 98.55909050195518 120.95050786540614 l -3.763632301757519 54.7223876638051 a75.85166031881442,75.85166031881442 0 0,0 -1.2982589769694668,-0.10049345558105229 l 4.702460273502222 -54.64971644122899" fill="#81ff25" stroke="none" /><path d="M 97.84075906011543 120.88869738790638 l -6.3091527241955 61.035329404624136 a82.36054794106877,82.36054794106877 0 0,0 -1.4050870215129119,-0.1574429314915892 l 7.3559756473092115 -60.91803071262558" fill="#45ffef" stroke="none" /><path d="M 96.41257539226777 120.69131181640829 l -10.022144654053614 57.80506708328052 a79.6674455210838,79.6674455210838 0 0,0 -1.3454893234781822,-0.24519297534528892 l 11.012968711082854 -57.624505934003864" fill="#38ff80" stroke="none" /><path d="M 95.35216902796893 120.47920084513623 l -11.81014287849881 52.03766864026901 a74.3610197834055,74.3610197834055 0 0,0 -1.2424233741480513,-0.2932085333554831 l 12.70169840638675 -51.8272639632673" fill="#c2ff1e" stroke="none" /><path d="M 95.00130118170881 120.39639698878247 l -13.099298681939656 53.44960876894988 a76.03137562802215,76.03137562802215 0 0,0 -1.2649981044392327,-0.32155757141184865 l 14.014902079604267 -53.21686596570277" fill="#7aff26" stroke="none" /><path d="M 94.6519064749342 120.30758222061772 l -14.305670650632559 54.32096159074251 a77.1731170659711,77.1731170659711 0 0,0 -1.278202164923278,-0.3483796839623885 l 15.236054216490531 -54.06738141263598" fill="#4cff2c" stroke="none" /><path d="M 92.93061703081489 119.77432235084164 l -21.09546927890162 59.00778207682284 a83.66527882107361,83.66527882107361 0 0,0 -1.3482494277587715,-0.49509586507350356 l 22.10530785831451 -58.636955362740615" fill="#4bdeff" stroke="none" /><path d="M 90.6110303473126 118.78422872680471 l -26.989868336820038 53.99781646967601 a81.3673519075642,81.3673519075642 0 0,0 -1.244040082798585,-0.6352157304134871 l 27.912835641332205 -53.52654278758969" fill="#40ffc8" stroke="none" /><line stroke="#e1ed5e" stroke-width="0.3" x1="58.13341422392154" x2="55.67067388415222" y1="173.97424548756322" y2="178.32567169271397" /><path d="M 57.64086615596768 174.84453072859336 a86.0,86.0 0 0,1 -31.369924170532247,-30.572349798747897" fill="none" id="id32" stroke="none" /><text fill="#e1ed5e" style="font-size:6.75px; font-family:Arial;" text-anchor="middle"><textPath startOffset="22.145653131862474" xlink:href="#id32">August</textPath></text><path d="M 84.58840730492382 114.26474011684316 l -41.757546574788364 38.65016170565137 a77.89927676006629,77.89927676006629 0 0,0 -0.8999306497498475,-0.9891814287210957 l 42.41487492538009 -37.9276427013726" fill="#30ff2f" stroke="none" /><line stroke="#e1ed5e" stroke-width="0.3" x1="26.387840678322732" x2="22.057713659400548" y1="142.50000000000003" y2="145.00000000000006" /><path d="M 25.521815274538298 143.00000000000003 a86.0,86.0 0 0,1 -11.493303480769221,-40.785679425670985" fill="none" id="id33" stroke="none" /><text fill="#e1ed5e" style="font-size:6.75px; font-family:Arial;" text-anchor="middle"><textPath startOffset="21.40746469413373" xlink:href="#id33">September</textPath></text><path d="M 81.29705330413844 109.54985784667822 l -43.89741355802325 22.414332144181746 a70.28879388414595,70.28879388414595 0 0,0 -0.5394835189756654,-1.079328423633767 l 44.275716990210654 -21.657471864384227" fill="#ff750a" stroke="none" /><path d="M 81.1358732173502 109.22738970284198 l -48.6546345880413 23.79941989184231 a75.16351035599561,75.16351035599561 0 0,0 -0.5570000598065656,-1.163915898508086 l 49.056013905807774 -22.96069149126912" fill="#9fff22" stroke="none" /><path d="M 80.5471966667186 107.91128576633889 l -53.289950812070934 21.67255907158347 a78.52841623288629,78.52841623288629 0 0,0 -0.497127224133886,-1.2530853523557115 l 53.65413671117094 -20.754572702014194" fill="#32ff4d" stroke="none" /><path d="M 79.17382384314188 102.69636545807758 l -46.786027371417966 6.057387932129891 a68.17652282395751,68.17652282395751 0 0,0 -0.1403070039296203,-1.1619432668605039 l 46.883116461607244 -5.253350988345988" fill="#ff0000" stroke="none" /><line stroke="#e1ed5e" stroke-width="0.3" x1="15.003131293944662" x2="10.003315487706104" y1="100.72959589197737" y2="100.7725132973878" /><path d="M 14.003168132696942 100.73817937305945 a86.0,86.0 0 0,1 10.791469493833604,-42.45332614584628" fill="none" id="id34" stroke="none" /><text fill="#e1ed5e" style="font-size:6.75px; font-family:Arial;" text-anchor="middle"><textPath startOffset="22.145653131862435" xlink:href="#id34">October</textPath></text><line stroke="#e1ed5e" stroke-width="0.3" x1="26.387840678322718" x2="22.05771365940052" y1="57.49999999999999" y2="54.99999999999999" /><path d="M 25.521815274538284 56.99999999999999 a86.0,86.0 0 0,1 29.574782752854787,-30.34633250058573" fill="none" id="id35" stroke="none" /><text fill="#e1ed5e" style="font-size:6.75px; font-family:Arial;" text-anchor="middle"><textPath startOffset="21.40746469413373" xlink:href="#id35">November</textPath></text><line stroke="#e1ed5e" stroke-width="0.3" x1="56.869717070023135" x2="54.33264160355391" y1="26.7553504044142" y2="22.446841604673864" /><path d="M 56.362301976729285 25.89364864446614 a86.0,86.0 0 0,1 42.16139366436587,-11.88097634709845" fill="none" id="id36" stroke="none" /><text fill="#e1ed5e" style="font-size:6.75px; font-family:Arial;" text-anchor="middle"><textPath startOffset="22.145653131862474" xlink:href="#id36">December</textPath></text></svg>