<?xml version="1.0" encoding="utf-8" ?>
<svg baseProfile="full" height="200mm" version="1.1" viewBox="0,0,200,200" width="200mm" xmlns="http://www.w3.org/2000/svg" xmlns:ev="http://www.w3.org/2001/xml-events" xmlns:xlink="http://www.w3.org/1999/xlink"><defs /><rect fill="#1a1a1a" height="200" width="200" x="0" y="0" /><text alignment-baseline="middle" fill="#e1ed5e" style="dominant-baseline: central; font-size:9.0px; font-family:Arial;" text-anchor="middle" x="100.0" y="100.0">2023</text><line stroke="#e1ed5e" stroke-width="0.3" x1="100.0" x2="100.0" y1="15.0" y2="10.0" /><path d="M 100.0 14.0 a86.0,86.0 0 0,1 42.46469731375804,11.215312516191453" fill="none" id="id13" stroke="none" /><text fill="#e1ed5e" style="font-size:6.75px; font-family:Arial;" text-anchor="middle"><textPath startOffset="22.20632615414155" xlink:href="#id13">January</textPath></text><path d="M 103.59715602781102 79.31037775812273 l 5.318571326558471 -30.590619578972458 a52.04952829240894,52.04952829240894 0 0,0 0.8813841050034864,0.1610673115239672 l -5.844350552664859 30.49453678609775" fill="red" stroke="none" /><path d="M 110.05341064243156 81.56283822128135 l 28.4671649775616 -52.20653415444629 a80.46344835509522,80.46344835509522 0 0,0 1.210307859312903,0.6735350133351147 l -29.361596925946536 51.708783743550995" fill="red" stroke="none" /><path d="M 110.36928655335952 81.73862282372117 l 27.105214315623243 -47.735062534374805 a75.89379599059023,75.89379599059023 0 0,0 1.1304679700698281,0.6548400149229847 l -27.9228790181584 47.261418362061775" fill="red" stroke="none" /><line stroke="#e1ed5e" stroke-width="0.3" x1="143.23703022742887" x2="145.7803849466894" y1="26.81831364943548" y2="22.513508569990506" /><path d="M 143.74570117128098 25.957352633546492 a86.0,86.0 0 0,1 28.547481713284135,27.462654790039103" fill="none" id="id14" stroke="none" /><text fill="#e1ed5e" style="font-size:6.75px; font-family:Arial;" text-anchor="middle"><textPath startOffset="19.985693538727396" xlink:href="#id14">February</textPath></text><line stroke="#e1ed5e" stroke-width="0.3" x1="172.23445277983987" x2="176.4835382374775" y1="55.19839476539836" y2="52.563006222186495" /><path d="M 173.08426987136738 54.67131705675599 a86.0,86.0 0 0,1 12.851231095245387,41.99856678651699" fill="none" id="id15" stroke="none" /><text fill="#e1ed5e" style="font-size:6.75px; font-family:Arial;" text-anchor="middle"><textPath startOffset="22.20632615414155" xlink:href="#id15">March</textPath></text><path d="M 118.89224826269711 90.83032412892265 l 24.937030809861415 -12.10361448430668 a48.71918088971418,48.71918088971418 0 0,0 0.35969094284245157,0.757600858253172 l -25.141679946545622 11.672571210412967" fill="red" stroke="none" /><path d="M 120.28053869075195 94.5502522615342 l 29.82413468050645 -8.014284679770656 a51.882159386438545,51.882159386438545 0 0,0 0.22433763727515363,0.8644644295028147 l -29.957668649651907 7.49972382471899" fill="red" stroke="none" /><path d="M 120.78858239683441 97.02765380044208 l 26.115603258006296 -3.734002281219404 a47.38119607913448,47.38119607913448 0 0,0 0.1084894036623786,0.8083720707710251 l -26.17600866072651 3.2839118683837145" fill="red" stroke="none" /><path d="M 120.83666639777658 97.38593545837742 l 27.634202980135044 -3.4668496758233953 a48.85082083210585,48.85082083210585 0 0,0 0.09749145983611815,0.8352472908446826 l -27.689784792974752 2.99065864665386" fill="red" stroke="none" /><path d="M 120.87857604477298 97.74499172005257 l 30.557130506908813 -3.3003487477664706 a51.73484222626075,51.73484222626075 0 0,0 0.08800558412849722,0.8862042220919732 l -30.60941321671954 2.7738689949700626" fill="red" stroke="none" /><path d="M 120.91429891909075 98.10471618934814 l 28.179535013706666 -2.5536699417843796 a49.29500704647894,49.29500704647894 0 0,0 0.06930764419852069,0.8457288090472064 l -28.219317141724684 2.0682272155294044" fill="red" stroke="none" /><line stroke="#e1ed5e" stroke-width="0.3" x1="184.98032266829074" x2="189.97916517819016" y1="98.17113171792111" y2="98.06355123074" /><path d="M 185.9800911702706 98.14961562048488 a86.0,86.0 0 0,1 -9.607161424134198,41.387399972396054" fill="none" id="id16" stroke="none" /><text fill="#e1ed5e" style="font-size:6.75px; font-family:Arial;" text-anchor="middle"><textPath startOffset="21.466115282336823" xlink:href="#id16">April</textPath></text><path d="M 120.99513854157772 99.54816195383933 l 26.307556161672423 -0.5661670082248882 a47.313647719021226,47.313647719021226 0 0,0 0.010514878911408853,0.8143889594917364 l -26.31340404770155 0.11324179067268902" fill="red" stroke="none" /><path d="M 120.92983693683757 101.71520430193887 l 26.536386511169155 2.1746621552392833 a47.62534440264746,47.62534440264746 0 0,0 -0.07399028993236684,0.8164766838922498 l -26.495021624959715 -2.6311202276801033" fill="red" stroke="none" /><path d="M 120.8583938346157 102.4346265915055 l 62.575181503847105 7.303879774516526 a84.0,84.0 0 0,0 -0.1799939630126075,1.4347289828504204 l -62.44018603158764 -8.379926511654341" fill="red" stroke="none" /><path d="M 120.81339534386255 102.79330883721812 l 36.4761895210588 4.895369585494439 a57.80322058400302,57.80322058400302 0 0,0 -0.14083603026082084,0.9850068676238424 l -36.38651943978138 -5.522521925098691" fill="red" stroke="none" /><path d="M 120.70491114924044 103.5080841355445 l 40.73741410810096 6.902240493844299 a62.318008568295824,62.318008568295824 0 0,0 -0.1882999690473948,1.0560862257668153 l -40.61256769671438 -7.602445470344333" fill="red" stroke="none" /><path d="M 120.64145759157962 103.86396538481128 l 42.63120965019609 7.980323950968833 a64.37171436087556,64.37171436087556 0 0,0 -0.2132544991694056,1.0873800968868494 l -42.48752521805102 -8.712967774923628" fill="red" stroke="none" /><path d="M 120.5718875245553 104.21870165774334 l 49.22554621575135 10.094741825504933 a71.24995734090399,71.24995734090399 0 0,0 -0.2567236434781868,1.1993273946284304 l -49.04448853354872 -10.940583039549532" fill="red" stroke="none" /><path d="M 120.49622156327973 104.57218783832717 l 48.507789520308535 10.820859084887797 a70.70006675530279,70.70006675530279 0 0,0 -0.2751896878690755,1.1855099729567076 l -48.3143392665089 -11.65423771519307" fill="red" stroke="none" /><path d="M 120.41448212921028 104.9243191809786 l 31.114811703986394 7.505420079564117 a53.00723102589871,53.00723102589871 0 0,0 -0.22159214974389146,0.8851504872101567 l -30.981008239947442 -8.03989840617167" fill="red" stroke="none" /><path d="M 120.32669344350535 105.2749913415812 l 45.07450455599144 11.697309349390885 a67.56756389358843,67.56756389358843 0 0,0 -0.30184014979797175,1.1232594846901036 l -44.86647632985169 -12.471459767256535" fill="red" stroke="none" /><path d="M 120.13307415673323 105.97154293290107 l 40.52352276209442 12.019424062236983 a63.268456937033626,63.268456937033626 0 0,0 -0.3186718518469907,1.041438050065915 l -40.3106241377413 -12.715189084854954" fill="red" stroke="none" /><path d="M 120.02730092923936 106.31721596034902 l 40.55543621395042 12.792410212184025 a63.52515920652845,63.52515920652845 0 0,0 -0.33791678756170607,1.0400009340138177 l -40.329227175372466 -13.488610046175639" fill="red" stroke="none" /><path d="M 119.9155931802556 106.66101706037122 l 33.40707964291316 11.17341198047955 a56.22609977777084,56.22609977777084 0 0,0 -0.3148907082936488,0.9152197953746045 l -33.209798103676285 -11.746804478943455" fill="red" stroke="none" /><path d="M 119.79798401119884 107.00284435728193 l 29.141133497846297 10.307656686900971 a51.91041002501122,51.91041002501122 0 0,0 -0.30522267806475933,0.8398417221101228 l -28.959386558776313 -10.807746206017224" fill="red" stroke="none" /><path d="M 119.67450827220406 107.3425965602758 l 27.370502045454383 10.21476884664528 a50.21448073833621,50.21448073833621 0 0,0 -0.30919140984326393,0.8072012048082543 l -27.190616356017614 -10.684393618286677" fill="red" stroke="none" /><path d="M 119.54520255179757 107.68017299344265 l 45.44740875060366 17.85829337830187 a69.83017104751883,69.83017104751883 0 0,0 -0.44923207402280557,1.1149571664703584 l -45.13327406232346 -18.637949912615042" fill="red" stroke="none" /><line stroke="#e1ed5e" stroke-width="0.3" x1="174.80103733775053" x2="179.2010983576182" y1="140.37084112569926" y2="142.7455964860345" /><path d="M 175.68104954172406 140.8457921977663 a86.0,86.0 0 0,1 -30.038265399797805,32.042727171017184" fill="none" id="id17" stroke="none" /><text fill="#e1ed5e" style="font-size:6.75px; font-family:Arial;" text-anchor="middle"><textPath startOffset="22.206326154141568" xlink:href="#id17">May</textPath></text><path d="M 118.12598468904814 110.60418214915192 l 30.811185798265452 18.025361492972085 a56.696538028883914,56.696538028883914 0 0,0 -0.5000611011739066,0.8381311690282662 l -30.496343821393317 -18.553054755886457" fill="red" stroke="none" /><path d="M 117.94076556474637 110.91462005526583 l 29.64449064202479 18.034813002928733 a55.6994280280771,55.6994280280771 0 0,0 -0.5053671709341923,0.8148127919562473 l -29.329658831422634 -18.542422126250255" fill="red" stroke="none" /><path d="M 117.75023020441432 111.22182372390056 l 30.256745748507832 19.128533170470806 a56.796249028964596,56.796249028964596 0 0,0 -0.5295442542046284,0.8218644421611663 l -29.922996630926153 -19.64651921255343" fill="red" stroke="none" /><path d="M 117.55443506779139 111.5257021239791 l 25.383356294264065 16.665930998332392 a51.365573151230514,51.365573151230514 0 0,0 -0.49163431867598933,0.7349266006002894 l -25.092718870177354 -17.100394513138486" fill="red" stroke="none" /><path d="M 117.35343817320211 111.8261652097733 l 32.98827684929239 22.48112495700813 a60.92026288513358,60.92026288513358 0 0,0 -0.5980022726945533,0.8614668749335346 l -32.5964136694357 -23.045633094128682" fill="red" stroke="none" /><path d="M 117.14729908036423 112.12312394758627 l 40.800392621815995 28.845838318109806 a70.96753372309733,70.96753372309733 0 0,0 -0.7137989146468585,0.9914042618271584 l -40.29781391479354 -29.543876185388093" fill="red" stroke="none" /><path d="M 116.93607887273984 112.41649034213515 l 41.33398845554017 30.303535565497345 a72.25234501378537,72.25234501378537 0 0,0 -0.7439883601947681,0.9966939893210947 l -40.80623882865031 -31.010542434327753" fill="red" stroke="none" /><path d="M 116.498646956653 112.99209946851258 l 36.593289359149246 28.81591784363974 a67.57709681049067,67.57709681049067 0 0,0 -0.7275224354374763,0.9076960998965437 l -36.09184901165691 -29.441541777114534" fill="red" stroke="none" /><path d="M 116.27256486870786 113.27417163493432 l 32.296545413309886 26.34556325267048 a62.679198033724795,62.679198033724795 0 0,0 -0.6891846452119907,0.8301673022008211 l -31.83826476820435 -26.89759181198507" fill="red" stroke="none" /><path d="M 115.80600337817218 113.82643327865902 l 31.070353109718884 27.179050512488413 a62.28035403340207,62.28035403340207 0 0,0 -0.7127872348903146,0.8008240146048652 l -30.59790702518023 -27.709848696834143" fill="red" stroke="none" /><path d="M 115.56566222782051 114.09645910891815 l 27.08576010040864 24.52920435386053 a57.54203424072528,57.54203424072528 0 0,0 -0.6711965704047055,0.7284513142416877 l -26.65951712200821 -24.99180692290355" fill="red" stroke="none" /><path d="M 115.07121518719521 114.62390073753431 l 24.361802027778637 23.6387424780708 a54.94536115561636,54.94536115561636 0 0,0 -0.6644709321513422,0.6731055461403734 l -23.95129047057176 -24.05458851819184" fill="red" stroke="none" /><path d="M 114.81725581225074 114.88116024355365 l 27.820122069589424 27.94010576307232 a60.4285265007269,60.4285265007269 0 0,0 -0.7434148904439702,0.7275879383928299 l -27.33505722676966 -28.414843804387722" fill="red" stroke="none" /><path d="M 114.0293411484842 115.62618273729858 l 28.51049925591625 31.755608947658775 a63.67630803453161,63.67630803453161 0 0,0 -0.8219023919731182,0.725233299963773 l -27.959654511036547 -32.24166538939484" fill="red" stroke="none" /><path d="M 113.75828350139079 115.86535959552629 l 26.548459797383188 30.614346720670426 a61.52232647253481,61.52232647253481 0 0,0 -0.8060436178043893,0.68692785783574 l -26.01755070300175 -31.066798968729113" fill="red" stroke="none" /><path d="M 113.20401910651253 116.32954008644616 l 26.776229008774013 33.11442534546009 a63.585579788120306,63.585579788120306 0 0,0 -0.8570200919166903,0.6808685929842564 l -26.202251424139973 -33.57042785244948" fill="red" stroke="none" /><path d="M 112.04921762599082 117.19931262002967 l 23.914367980243753 34.135883654007564 a62.679198033724795,62.679198033724795 0 0,0 -0.8889794100811353,0.6114481444008478 l -23.323231685539735 -34.54247258777351" fill="red" stroke="none" /><path d="M 111.45004920935366 117.60387380957326 l 29.830921585181418 45.86353906495148 a75.71149877478749,75.71149877478749 0 0,0 -1.0986034033799654,0.7011806706580972 l -29.03703637975452 -46.370234164433384" fill="red" stroke="none" /><line stroke="#e1ed5e" stroke-width="0.3" x1="143.8653032363475" x2="146.44561519142675" y1="172.8068346515853" y2="177.08958963109032" /><path d="M 144.38136562736335 173.6633856474863 a86.0,86.0 0 0,1 -40.68145358897372,12.25698825130547" fill="none" id="id18" stroke="none" /><text fill="#e1ed5e" style="font-size:6.75px; font-family:Arial;" text-anchor="middle"><textPath startOffset="21.466115282336833" xlink:href="#id18">June</textPath></text><path d="M 107.93186726928326 119.44442032107085 l 16.797090971221227 41.17689894793243 a65.47110603598387,65.47110603598387 0 0,0 -1.0471602212245303,0.41668666294924345 l -16.08580967395483 -41.45993245528774" fill="red" stroke="none" /><path d="M 107.2578585660854 119.70592522655815 l 14.536614934149696 39.46859040188296 a63.060466022802835,63.060466022802835 0 0,0 -1.021821099292049,0.36638869155277237 l -13.855074274227912 -39.71296663447569" fill="red" stroke="none" /><path d="M 106.57524785965236 119.94407469862006 l 13.955398523638857 42.329584609633365 a65.57069531853516,65.57069531853516 0 0,0 -1.0749805136055741,0.34417481369075403 l -13.224696664942343 -42.56353226998383" fill="red" stroke="none" /><path d="M 105.18746579009965 120.34920634021253 l 10.320317207645301 40.48417336180366 a62.778909033805476,62.778909033805476 0 0,0 -1.049444276367722,0.25792787027879593 l -9.621919646534367 -40.65582249039649" fill="red" stroke="none" /><path d="M 104.83641907484287 120.43548508189849 l 12.745208721610965 53.85276144719233 a76.34040351177097,76.34040351177097 0 0,0 -1.2813549535770314,0.2916322157005657 l -11.816333618641071 -54.06417039647058" fill="red" stroke="none" /><path d="M 102.34483914955558 120.86867818915974 l 4.665566666473261 41.52276686064136 a62.78406011964949,62.78406011964949 0 0,0 -1.0750048319895287,0.11142864626528423 l -3.950129237878129 -41.596924875362404" fill="red" stroke="none" /><path d="M 101.62511606390274 120.93702456842531 l 3.250334735282755 41.8753710702932 a63.00132590962021,63.00132590962021 0 0,0 -1.0819344877767751,0.07461653681149101 l -2.5290374867270495 -41.925115951620974" fill="red" stroke="none" /><path d="M 101.26447882468166 120.96189622390904 l 3.2127002720786346 53.25853496897492 a74.35534640577023,74.35534640577023 0 0,0 -1.2782460585586644,0.06607072058071854 l -2.2954661451064906 -53.30594549631785" fill="red" stroke="none" /><line stroke="#e1ed5e" stroke-width="0.3" x1="102.19456741930631" x2="102.32365962044197" y1="184.97166512339345" y2="189.96999836594603" /><path d="M 102.22038585953345 185.97133177190398 a86.0,86.0 0 0,1 -42.740103519485714,-10.115201625700543" fill="none" id="id19" stroke="none" /><text fill="#e1ed5e" style="font-size:6.75px; font-family:Arial;" text-anchor="middle"><textPath startOffset="22.20632615414155" xlink:href="#id19">July</textPath></text><path d="M 100.18074693466247 120.99922214144158 l 0.36474021367154663 42.375605346276124 a63.377175034289564,63.377175034289564 0 0,0 -1.090974296667975,0.0 l 0.36474021367151743 -42.375605346276124" fill="red" stroke="none" /><path d="M 99.81925306533755 120.99922214144158 l -0.3662052926410009 42.545818571703116 a63.547394564798395,63.547394564798395 0 0,0 -1.0937423808577962,-0.018829766977603045 l 1.098507363391465 -42.53321132744635" fill="red" stroke="none" /><path d="M 98.73552117531835 120.96189622390904 l -2.6594792308724684 44.087513811253764 a65.16765449779888,65.16765449779888 0 0,0 -1.1191372859332729,-0.0771822595881435 l 3.4179792775846716 -44.03520320714934" fill="red" stroke="none" /><path d="M 98.01472825383883 120.90594882070398 l -4.3172700718417305 45.46310969347399 a66.66763803695204,66.66763803695204 0 0,0 -1.1415004523516679,-0.11832118919999762 l 5.099203120798991 -45.38205913581823" fill="red" stroke="none" /><path d="M 97.65516085044442 120.86867818915974 l -5.154871277139593 45.87749646262848 a67.16619303735546,67.16619303735546 0 0,0 -1.1478145132925517,-0.13898435266521209 l 5.9438132134835335 -45.78196658123792" fill="red" stroke="none" /><path d="M 96.58105272829116 120.7198165907248 l -9.107031720814744 55.19126559880551 a76.93758866059403,76.93758866059403 0 0,0 -1.304828634949091,-0.22686118357286184 l 10.055709327235885 -55.02632583671164" fill="red" stroke="none" /><path d="M 96.22490169976321 120.6578951692458 l -7.448920552609891 40.76159285447044 a62.43662473504219,62.43662473504219 0 0,0 -1.0555725627511399,-0.20230299393512402 l 8.149460729932727 -40.62733266218685" fill="red" stroke="none" /><path d="M 95.51606077576429 120.51570834832081 l -11.113580456688501 50.8488103769699 a73.04914204211565,73.04914204211565 0 0,0 -1.2261119368564037,-0.2790590849507642 l 11.987212542937767 -50.64997455844145" fill="red" stroke="none" /><path d="M 94.81253420990036 120.34920634021253 l -10.446368600262566 40.97864328249902 a63.28919273534142,63.28919273534142 0 0,0 -1.0533417965594043,-0.27819714214594904 l 11.15020083963346 -40.79275479104949" fill="red" stroke="none" /><path d="M 94.46302465271185 120.25689768951611 l -13.669763743309858 50.01051805724683 a72.84509964453844,72.84509964453844 0 0,0 -1.2066923677451709,-0.3410233164490582 l 14.528587279159643 -49.767805947459244" fill="red" stroke="none" /><path d="M 93.76903079525671 120.05430185196036 l -13.40026686148138 43.128602903766165 a66.16241291593778,66.16241291593778 0 0,0 -1.0846812630588978,-0.3472806873261373 l 14.140669469631218 -42.89154936978032" fill="red" stroke="none" /><path d="M 93.08242187328487 119.8279376855182 l -17.178274530379948 49.238295642472124 a73.14885304219634,73.14885304219634 0 0,0 -1.185291612030006,-0.4250034014183399 l 18.02328570303968 -48.93530470001383" fill="red" stroke="none" /><path d="M 92.7421414339146 119.70592522655815 l -18.230053799059256 49.496703989115325 a73.74711904268042,73.74711904268042 0 0,0 -1.1874331943555554,-0.4489856294857678 l 19.079357214175094 -49.17557010952292" fill="red" stroke="none" /><path d="M 92.40401165467489 119.57807347666478 l -15.157217158282663 39.06655694242261 a62.90390319909216,62.90390319909216 0 0,0 -1.0060997771084854,-0.40034786484447576 l 15.827438011433006 -38.799862233172064" fill="red" stroke="none" /><path d="M 90.7491055286396 118.85261126421891 l -22.181907113666483 45.20502025048717 a71.35405504074407,71.35405504074407 0 0,0 -1.0979897170193178,-0.5505548380061075 l 22.956750738368562 -44.816497571571766" fill="red" stroke="none" /><line stroke="#e1ed5e" stroke-width="0.3" x1="58.666819895761336" x2="56.23545636021788" y1="174.27360380694188" y2="178.64263932499728" /><path d="M 58.180547188652646 175.14741091055294 a86.0,86.0 0 0,1 -31.652253787137756,-30.449443065178592" fill="none" id="id20" stroke="none" /><text fill="#e1ed5e" style="font-size:6.75px; font-family:Arial;" text-anchor="middle"><textPath startOffset="22.20632615414155" xlink:href="#id20">August</textPath></text><path d="M 88.54995079064634 117.60387380957326 l -24.193078888036325 37.19563995079834 a65.37139503590319,65.37139503590319 0 0,0 -0.938002633475357,-0.621656997747192 l 24.829756220251642 -36.77368493195983" fill="red" stroke="none" /><path d="M 85.97065885151581 115.62618273729859 l -27.757954183296537 30.917408015886636 a62.549851249586936,62.549851249586936 0 0,0 -0.7949801656807609,-0.7261955325515712 l 28.286033898444153 -30.43501971674849" fill="red" stroke="none" /><path d="M 85.70375840098266 115.38237550388516 l -28.538222913142164 30.70636838521995 a62.92029611595113,62.92029611595113 0 0,0 -0.7869955751990012,-0.744153438137705 l 29.062554322731984 -30.21058031033631" fill="red" stroke="none" /><path d="M 84.67929136418377 114.36230785411682 l -33.46266013381454 31.369373172203904 a66.86706003711342,66.86706003711342 0 0,0 -0.7799679306121988,-0.8465011431423709 l 33.99767447242247 -30.78872077426019" fill="red" stroke="none" /><path d="M 83.50135304334701 112.99209946851258 l -35.0737323684517 27.619320593993486 a65.6429565813866,65.6429565813866 0 0,0 -0.6914178330215734,-0.8937507532422246 l 35.54395701869134 -27.01149184663801" fill="red" stroke="none" /><path d="M 83.06392112726016 112.41649034213515 l -39.72497146438173 29.12390336838903 a70.25723403985657,70.25723403985657 0 0,0 -0.7066546457625735,-0.9814814972022994 l 40.220405902519914 -28.435788265735592" fill="red" stroke="none" /><line stroke="#e1ed5e" stroke-width="0.3" x1="26.63291911575756" x2="22.317208475507996" y1="142.92168965132927" y2="145.44649492493687" /><path d="M 25.769776987707644 143.4266507060508 a86.0,86.0 0 0,1 -11.730757126820373,-40.83630448921669" fill="none" id="id21" stroke="none" /><text fill="#e1ed5e" style="font-size:6.75px; font-family:Arial;" text-anchor="middle"><textPath startOffset="21.46611528233685" xlink:href="#id21">September</textPath></text><path d="M 81.35079622478065 109.6543875284942 l -33.891755385880714 17.545206994359962 a59.163927622970256,59.163927622970256 0 0,0 -0.46041179775308755,-0.9084361562454255 l 34.18874585342007 -16.959216626411852" fill="red" stroke="none" /><path d="M 81.18737489456691 109.33194174019688 l -34.15014374443111 16.94006817529911 a59.12083718321371,59.12083718321371 0 0,0 -0.4443824578848436,-0.9155594849790164 l 34.43667945893067 -16.34971973435481" fill="red" stroke="none" /><path d="M 80.32549172779594 107.34259656027581 l -35.175236442019894 13.12752352092863 a58.545028066903065,58.545028066903065 0 0,0 -0.3442328859538445,-0.9471810600032866 l 35.39599358897897 -12.520094663919226" fill="red" stroke="none" /><path d="M 80.0844068197444 106.66101706037122 l -36.39965324064918 12.174315323328427 a59.38161942429386,59.38161942429386 0 0,0 -0.31587557318560155,-0.9721650513891269 l 36.60382106485103 -11.545951371961497" fill="red" stroke="none" /><path d="M 79.58551787078972 104.9243191809786 l -44.458918343617505 10.724244826753594 a66.73406659579487,66.73406659579487 0 0,0 -0.2597526112710912,-1.1190074509984242 l 44.63693152081915 -9.957368718406595" fill="red" stroke="none" /><line stroke="#e1ed5e" stroke-width="0.3" x1="15.007084014347285" x2="10.007500721073583" y1="101.09737516637583" y2="101.16192664675087" /><path d="M 14.007167355692545 101.11028546245083 a86.0,86.0 0 0,1 10.666146001902534,-42.60595125391555" fill="none" id="id22" stroke="none" /><text fill="#e1ed5e" style="font-size:6.75px; font-family:Arial;" text-anchor="middle"><textPath startOffset="22.20632615414155" xlink:href="#id22">October</textPath></text><path d="M 79.16333360222342 97.38593545837743 l -32.41393827711054 -4.066491495663554 a53.66802332123319,53.66802332123319 0 0,0 0.12288444209249387,-0.9156318273163787 l 32.33913783596021 4.6238416650445915" fill="red" stroke="none" /><path d="M 79.32604984820605 96.31383870115002 l -37.65627584315531 -6.714106673020779 a59.250154755144514,59.250154755144514 0 0,0 0.18766576913176702,-1.00251804277324 l 37.53512435011368 7.361302793256591" fill="red" stroke="none" /><path d="M 79.62865764111835 94.90015583598534 l -37.08864273215068 -9.284920691852086 a59.23319463459857,59.23319463459857 0 0,0 0.2561233975172181,-0.9869479299431381 l 36.923323002763155 9.921965047344088" fill="red" stroke="none" /><path d="M 80.52162464483688 92.15188598940014 l -39.44886592382034 -15.89450822842595 a63.53055859613243,63.53055859613243 0 0,0 0.41742091934627595,-1.010817865727325 l 39.16942331758787 16.571200664606586" fill="red" stroke="none" /><path d="M 81.6062741919709 89.86733742301443 l -38.46611735824773 -21.190061867058738 a64.91652202244919,64.91652202244919 0 0,0 0.5475936109594532,-0.9741079317597832 l 38.095666105995846 21.849053308753305" fill="red" stroke="none" /><line stroke="#e1ed5e" stroke-width="0.3" x1="26.266209847984243" x2="21.928928074336255" y1="57.711370442889674" y2="55.22380399835377" /><path d="M 25.398753493254645 57.213857153982495 a86.0,86.0 0 0,1 29.58750427330803,-30.492523968695096" fill="none" id="id23" stroke="none" /><text fill="#e1ed5e" style="font-size:6.75px; font-family:Arial;" text-anchor="middle"><textPath startOffset="21.46611528233685" xlink:href="#id23">November</textPath></text><line stroke="#e1ed5e" stroke-width="0.3" x1="56.762969772571076" x2="54.21961505331055" y1="26.818313649435495" y2="22.513508569990535" /><path d="M 56.25429882871897 25.957352633546506 a86.0,86.0 0 0,1 42.265352541879196,-11.944610805530505" fill="none" id="id24" stroke="none" /><text fill="#e1ed5e" style="font-size:6.75px; font-family:Arial;" text-anchor="middle"><textPath startOffset="22.20632615414155" xlink:href="#id24">December</textPath></text></svg>