<?xml version="1.0" encoding="utf-8" ?>
<svg baseProfile="full" height="200mm" version="1.1" viewBox="0,0,200,200" width="200mm" xmlns="http://www.w3.org/2000/svg" xmlns:ev="http://www.w3.org/2001/xml-events" xmlns:xlink="http://www.w3.org/1999/xlink"><defs /><rect fill="#1a1a1a" height="200" width="200" x="0" y="0" /><text alignment-baseline="middle" fill="#e1ed5e" style="dominant-baseline: central; font-size:9.0px; font-family:Arial;" text-anchor="middle" x="100.0" y="100.0">2024</text><line stroke="#e1ed5e" stroke-width="0.3" x1="100.0" x2="100.0" y1="15.0" y2="10.0" /><path d="M 100.0 14.0 a86.0,86.0 0 0,1 42.35913384403234,11.155469271406648" fill="none" id="id25" stroke="none" /><text fill="#e1ed5e" style="font-size:6.75px; font-family:Arial;" text-anchor="middle"><textPath startOffset="22.145653131862478" xlink:href="#id25">January</textPath></text><line stroke="#e1ed5e" stroke-width="0.3" x1="143.13028292997686" x2="145.6673583964461" y1="26.7553504044142" y2="22.446841604673864" /><path d="M 143.63769802327073 25.89364864446614 a86.0,86.0 0 0,1 29.32050498858742,28.57503671076993" fill="none" id="id26" stroke="none" /><text fill="#e1ed5e" style="font-size:6.75px; font-family:Arial;" text-anchor="middle"><textPath startOffset="20.669276256404974" xlink:href="#id26">February</textPath></text><line stroke="#e1ed5e" stroke-width="0.3" x1="172.87174338648825" x2="177.1583165268699" y1="56.24261187166439" y2="53.66864786411523" /><path d="M 173.72905801456457 55.72781907015455 a86.0,86.0 0 0,1 12.242430191666344,42.057860355516425" fill="none" id="id27" stroke="none" /><text fill="#e1ed5e" style="font-size:6.75px; font-family:Arial;" text-anchor="middle"><textPath startOffset="22.145653131862474" xlink:href="#id27">March</textPath></text><line stroke="#e1ed5e" stroke-width="0.3" x1="184.99686870605535" x2="189.99668451229388" y1="99.2704041080226" y2="99.22748670261217" /><path d="M 185.99683186730306 99.26182062694052 a86.0,86.0 0 0,1 -10.086455211305974,41.156179273409016" fill="none" id="id28" stroke="none" /><text fill="#e1ed5e" style="font-size:6.75px; font-family:Arial;" text-anchor="middle"><textPath startOffset="21.40746469413373" xlink:href="#id28">April</textPath></text><path d="M 118.70294669586154 109.54985784667822 l 41.95912428707287 21.424627831576643 a68.11244834074745,68.11244834074745 0 0,0 -0.5406569305125336,1.036780952546209 l -41.58515928758539 -22.141755027227354" fill="red" stroke="none" /><line stroke="#e1ed5e" stroke-width="0.3" x1="174.33088141563837" x2="178.70328620479359" y1="141.23008692659167" y2="143.65538615756765" /><path d="M 175.20536237346943 141.71514677278685 a86.0,86.0 0 0,1 -30.301960400862466,31.631185727798858" fill="none" id="id29" stroke="none" /><text fill="#e1ed5e" style="font-size:6.75px; font-family:Arial;" text-anchor="middle"><textPath startOffset="22.145653131862474" xlink:href="#id29">May</textPath></text><path d="M 118.36410011445183 110.18625677009912 l 43.58624148728569 24.176553420313983 a70.84241348764404,70.84241348764404 0 0,0 -0.5990118560364321,1.0583965534089006 l -43.16479626622788 -24.921206743822008" fill="red" stroke="none" /><path d="M 117.21940702142032 112.02048342749411 l 43.091462164868695 30.08118724268176 a73.55237328071483,73.55237328071483 0 0,0 -0.7316181069347463,1.0291124904494005 l -42.56872895940399 -30.816476959840667" fill="red" stroke="none" /><path d="M 117.01052211995028 112.31430620078461 l 37.07508326217903 26.839501132925324 a66.77030281702108,66.77030281702108 0 0,0 -0.6800968059208116,0.9226819336050487 l -36.608884436674394 -27.47198937579925" fill="red" stroke="none" /><path d="M 116.57777611688842 112.89097897827486 l 38.687378377581645 30.083539424923636 a70.00747483865197,70.00747483865197 0 0,0 -0.7458582013058414,0.9423674720848364 l -38.16525374563424 -30.743226840923157" fill="red" stroke="none" /><path d="M 115.41159269507618 114.26474011684316 l 33.18148398016999 30.712286201252976 a66.21344272264557,66.21344272264557 0 0,0 -0.779250766530483,0.8275373099540102 l -32.64937737990325 -31.27736497115148" fill="red" stroke="none" /><path d="M 115.16444852881244 114.52719865689866 l 36.28114109332111 34.75651245478694 a71.24277417751964,71.24277417751964 0 0,0 -0.8536010621760186,0.8758698879418161 l -35.67915322999429 -35.374205034796496" fill="red" stroke="none" /><path d="M 113.86319453409587 115.77377054828091 l 34.21509677645172 38.93049935291654 a72.82910984465576,72.82910984465576 0 0,0 -0.946155982677482,0.8172670029649869 l -33.54176131401139 -39.512110488346245" fill="red" stroke="none" /><line stroke="#e1ed5e" stroke-width="0.3" x1="143.1302829299769" x2="145.66735839644613" y1="173.24464959558577" y2="177.55315839532614" /><path d="M 143.63769802327073 174.10635135553383 a86.0,86.0 0 0,1 -40.68552437913181,11.842963189579606" fill="none" id="id30" stroke="none" /><text fill="#e1ed5e" style="font-size:6.75px; font-family:Arial;" text-anchor="middle"><textPath startOffset="21.407464694133747" xlink:href="#id30">June</textPath></text><path d="M 110.02825361518725 118.45085714620011 l 24.904366007347342 45.82122841631659 a73.15182086761858,73.15182086761858 0 0,0 -1.1084632164597525,0.5901942283258605 l -24.114113975101034 -46.24199311236502" fill="red" stroke="none" /><path d="M 109.71004243097381 118.62028667847754 l 27.171437587554717 52.10481426247372 a79.76392337056186,79.76392337056186 0 0,0 -1.2195249754100579,0.6226981419038494 l -26.272985390431078 -52.563570356050406" fill="red" stroke="none" /><path d="M 107.407793817531 119.65005319985036 l 20.902787419242145 55.44712703007847 a80.25631120634904,80.25631120634904 0 0,0 -1.2933145885929034,0.4749230312049902 l -19.947883678995115 -55.79778091029218" fill="red" stroke="none" /><path d="M 107.06938296918513 119.77432235084164 l 19.701056676402832 55.107361854565966 a79.52309770284643,79.52309770284643 0 0,0 -1.289388369377095,0.44851620661553593 l -18.752162534980716 -55.43743649375009" fill="red" stroke="none" /><path d="M 104.29559338865022 120.5559693870025 l 10.185035969116397 48.73908413674678 a70.79189974464799,70.79189974464799 0 0,0 -1.1916754931272902,0.23836847344410866 l -9.346863990458148 -48.906742006853754" fill="red" stroke="none" /><line stroke="#e1ed5e" stroke-width="0.3" x1="101.45913802915013" x2="101.54496967792366" y1="184.9874750549273" y2="189.98673829345242" /><path d="M 101.47630435890484 185.9873277026323 a86.0,86.0 0 0,1 -42.54439059252881,-10.42667462771756" fill="none" id="id31" stroke="none" /><text fill="#e1ed5e" style="font-size:6.75px; font-family:Arial;" text-anchor="middle"><textPath startOffset="22.145653131862474" xlink:href="#id31">July</textPath></text><path d="M 99.63950707515114 120.99690560180557 l -0.8617343374111793 50.19170499405361 a71.19910194693108,71.19910194693108 0 0,0 -1.2218670662758921,-0.03147096136639059 l 1.7232147177578154 -50.16951631533718" fill="red" stroke="none" /><path d="M 99.27912038922189 120.98762331915562 l -1.7090156547464772 49.756126088298764 a70.78546793817301,70.78546793817301 0 0,0 -1.2140524797688181,-0.052136637227590245 l 2.562893895116134 -49.719456882645346" fill="red" stroke="none" /><path d="M 98.55909050195518 120.95050786540614 l -3.5399836022097046 51.47058465652241 a72.59217546089866,72.59217546089866 0 0,0 -1.2424704093982497,-0.09617506761947958 l 4.423023006383191 -51.402231821907876" fill="red" stroke="none" /><path d="M 97.84075906011543 120.88869738790638 l -5.934239956719263 57.40838847273707 a78.71428134266782,78.71428134266782 0 0,0 -1.3428810017319959,-0.15047261722579677 l 6.918856860052058 -57.29806009500431" fill="red" stroke="none" /><path d="M 96.41257539226777 120.69131181640829 l -9.426592421835688 54.3700800696945 a76.18121284887096,76.18121284887096 0 0,0 -1.286610959688021,-0.23446337612122936 l 10.358538115074767 -54.2002485196419" fill="red" stroke="none" /><path d="M 95.35216902796893 120.47920084513623 l -11.108341298409085 48.94540138731191 a71.19011419958133,71.19011419958133 0 0,0 -1.1894439068675489,-0.28070552333289495 l 11.946917359016522 -48.74749972033279" fill="red" stroke="none" /><path d="M 95.00130118170881 120.39639698878247 l -12.320890782252924 50.27343890588091 a72.761211433771,72.761211433771 0 0,0 -1.2105896254032686,-0.30772714880360863 l 13.18208570088157 -50.05452652524204" fill="red" stroke="none" /><path d="M 94.6519064749342 120.30758222061772 l -13.455575747451064 51.0930127785583 a73.83510644907716,73.83510644907716 0 0,0 -1.2229153946169369,-0.33331102886604824 l 14.330672543002695 -50.85450125554811" fill="red" stroke="none" /><path d="M 92.93061703081489 119.77432235084164 l -19.841899883088416 55.50132537048634 a79.94148037546304,79.94148037546304 0 0,0 -1.2882411519945742,-0.47305999501166185 l 20.79173018673711 -55.15253452646596" fill="red" stroke="none" /><path d="M 90.6110303473126 118.78422872680471 l -25.38603234261896 50.789070114134 a77.78010462440973,77.78010462440973 0 0,0 -1.1891940136746417,-0.6072109367250873 l 26.254153578007184 -50.345801225736075" fill="red" stroke="none" /><line stroke="#e1ed5e" stroke-width="0.3" x1="58.13341422392154" x2="55.67067388415222" y1="173.97424548756322" y2="178.32567169271397" /><path d="M 57.64086615596768 174.84453072859336 a86.0,86.0 0 0,1 -31.369924170532247,-30.572349798747897" fill="none" id="id32" stroke="none" /><text fill="#e1ed5e" style="font-size:6.75px; font-family:Arial;" text-anchor="middle"><textPath startOffset="22.145653131862474" xlink:href="#id32">August</textPath></text><path d="M 84.58840730492382 114.26474011684316 l -39.27616150871864 36.35342873342527 a74.51811509699479,74.51811509699479 0 0,0 -0.8608698119743028,-0.946246725554139 l 39.89442902153482 -35.67384443231346" fill="red" stroke="none" /><line stroke="#e1ed5e" stroke-width="0.3" x1="26.387840678322732" x2="22.057713659400548" y1="142.50000000000003" y2="145.00000000000006" /><path d="M 25.521815274538298 143.00000000000003 a86.0,86.0 0 0,1 -11.493303480769221,-40.785679425670985" fill="none" id="id33" stroke="none" /><text fill="#e1ed5e" style="font-size:6.75px; font-family:Arial;" text-anchor="middle"><textPath startOffset="21.40746469413373" xlink:href="#id33">September</textPath></text><path d="M 81.29705330413844 109.54985784667822 l -41.28886982457194 21.082391127271535 a67.35987475213565,67.35987475213565 0 0,0 -0.5170033551712262,-1.0343530371601561 l 41.6446930929549 -20.370506233947623" fill="red" stroke="none" /><path d="M 81.1358732173502 109.22738970284198 l -45.763399504447136 22.38517193081876 a71.94491786798707,71.94491786798707 0 0,0 -0.5331486430775875,-1.1140756109820125 l 46.14092740548464 -21.596283817771646" fill="red" stroke="none" /><path d="M 80.5471966667186 107.91128576633889 l -50.12326840462076 20.3846969045037 a75.10986881752844,75.10986881752844 0 0,0 -0.4754859754153716,-1.1985352684750632 l 50.46581305500226 -19.52126061881507" fill="red" stroke="none" /><path d="M 79.17382384314188 102.69636545807758 l -44.005831714754095 5.697435942918603 a65.37312250936279,65.37312250936279 0 0,0 -0.1345376175974397,-1.114164471683914 l 44.0971514186112 -4.94117779431129" fill="red" stroke="none" /><path d="M 79.0935383218832 101.97986365728391 l -62.7193850343504 5.9395909718517395 a84.0,84.0 0 0,0 -0.12362550920903681,-1.4367158104973519 l 62.812104166257186 -4.862054113978725" fill="red" stroke="none" /><line stroke="#e1ed5e" stroke-width="0.3" x1="15.003131293944662" x2="10.003315487706104" y1="100.72959589197737" y2="100.7725132973878" /><path d="M 14.003168132696942 100.73817937305945 a86.0,86.0 0 0,1 10.791469493833604,-42.45332614584628" fill="none" id="id34" stroke="none" /><text fill="#e1ed5e" style="font-size:6.75px; font-family:Arial;" text-anchor="middle"><textPath startOffset="22.145653131862435" xlink:href="#id34">October</textPath></text><path d="M 79.17382384314186 97.30363454192245 l -49.790365792636834 -6.446359689707239 a71.20593669092992,71.20593669092992 0 0,0 0.16735254426286228,-1.2108796437093765 l 49.672368731818764 7.300127641616683" fill="red" stroke="none" /><path d="M 80.16572619554312 93.10060997987247 l -42.93583535054696 -14.935312320677813 a66.45931710183808,66.45931710183808 0 0,0 0.38407102011784405,-1.0743149989937921 l 42.67312416038517 15.670162276052526" fill="red" stroke="none" /><line stroke="#e1ed5e" stroke-width="0.3" x1="26.387840678322718" x2="22.05771365940052" y1="57.49999999999999" y2="54.99999999999999" /><path d="M 25.521815274538284 56.99999999999999 a86.0,86.0 0 0,1 29.574782752854787,-30.34633250058573" fill="none" id="id35" stroke="none" /><text fill="#e1ed5e" style="font-size:6.75px; font-family:Arial;" text-anchor="middle"><textPath startOffset="21.40746469413373" xlink:href="#id35">November</textPath></text><path d="M 84.10781606972428 86.27271002978789 l -34.39937977854972 -29.71336495269286 a66.45548796307011,66.45548796307011 0 0,0 0.7531271844973151,-0.8569204863075388 l 33.88424153009382 30.299497716811697" fill="red" stroke="none" /><line stroke="#e1ed5e" stroke-width="0.3" x1="56.869717070023135" x2="54.33264160355391" y1="26.7553504044142" y2="22.446841604673864" /><path d="M 56.362301976729285 25.89364864446614 a86.0,86.0 0 0,1 42.16139366436587,-11.88097634709845" fill="none" id="id36" stroke="none" /><text fill="#e1ed5e" style="font-size:6.75px; font-family:Arial;" text-anchor="middle"><textPath startOffset="22.145653131862474" xlink:href="#id36">December</textPath></text></svg>