<?xml version="1.0" encoding="utf-8" ?>
<svg baseProfile="full" height="200mm" version="1.1" viewBox="0,0,200,200" width="200mm" xmlns="http://www.w3.org/2000/svg" xmlns:ev="http://www.w3.org/2001/xml-events" xmlns:xlink="http://www.w3.org/1999/xlink"><defs /><rect fill="#1a1a1a" height="200" width="200" x="0" y="0" /><text alignment-baseline="middle" fill="#e1ed5e" style="dominant-baseline: central; font-size:9.0px; font-family:Arial;" text-anchor="middle" x="100.0" y="100.0">2024</text><line stroke="#e1ed5e" stroke-width="0.3" x1="100.0" x2="100.0" y1="15.0" y2="10.0" /><path d="M 100.0 14.0 a86.0,86.0 0 0,1 42.35913384403234,11.155469271406648" fill="none" id="id25" stroke="none" /><text fill="#e1ed5e" style="font-size:6.75px; font-family:Arial;" text-anchor="middle"><textPath startOffset="22.145653131862478" xlink:href="#id25">January</textPath></text><line stroke="#e1ed5e" stroke-width="0.3" x1="143.13028292997686" x2="145.6673583964461" y1="26.7553504044142" y2="22.446841604673864" /><path d="M 143.63769802327073 25.89364864446614 a86.0,86.0 0 0,1 29.32050498858742,28.57503671076993" fill="none" id="id26" stroke="none" /><text fill="#e1ed5e" style="font-size:6.75px; font-family:Arial;" text-anchor="middle"><textPath startOffset="20.669276256404974" xlink:href="#id26">February</textPath></text><line stroke="#e1ed5e" stroke-width="0.3" x1="172.87174338648825" x2="177.1583165268699" y1="56.24261187166439" y2="53.66864786411523" /><path d="M 173.72905801456457 55.72781907015455 a86.0,86.0 0 0,1 12.242430191666344,42.057860355516425" fill="none" id="id27" stroke="none" /><text fill="#e1ed5e" style="font-size:6.75px; font-family:Arial;" text-anchor="middle"><textPath startOffset="22.145653131862474" xlink:href="#id27">March</textPath></text><line stroke="#e1ed5e" stroke-width="0.3" x1="184.99686870605535" x2="189.99668451229388" y1="99.2704041080226" y2="99.22748670261217" /><path d="M 185.99683186730306 99.26182062694052 a86.0,86.0 0 0,1 -10.086455211305974,41.156179273409016" fill="none" id="id28" stroke="none" /><text fill="#e1ed5e" style="font-size:6.75px; font-family:Arial;" text-anchor="middle"><textPath startOffset="21.40746469413373" xlink:href="#id28">April</textPath></text><path d="M 118.70294669586154 109.54985784667822 l 44.61001328416068 22.778190641821602 a71.08891348520311,71.08891348520311 0 0,0 -0.5642832506343465,1.0820875366268639 l -44.21242196455139 -23.540624421552966" fill="#ff760a" stroke="none" /><line stroke="#e1ed5e" stroke-width="0.3" x1="174.33088141563837" x2="178.70328620479359" y1="141.23008692659167" y2="143.65538615756765" /><path d="M 175.20536237346943 141.71514677278685 a86.0,86.0 0 0,1 -30.301960400862466,31.631185727798858" fill="none" id="id29" stroke="none" /><text fill="#e1ed5e" style="font-size:6.75px; font-family:Arial;" text-anchor="middle"><textPath startOffset="22.145653131862474" xlink:href="#id29">May</textPath></text><path d="M 118.36410011445183 110.18625677009912 l 46.33992831812967 25.70397708652147 a73.9913520736527,73.9913520736527 0 0,0 -0.6256378764398558,1.105442180205751 l -45.89185707666844 -26.495676036826342" fill="#eeff19" stroke="none" /><path d="M 117.21940702142032 112.02048342749411 l 45.813889881418284 31.9816532232249 a76.87252141220523,76.87252141220523 0 0,0 -0.7646432886162847,1.075566544341294 l -45.258131494272035 -32.763396994275695" fill="#69ff28" stroke="none" /><path d="M 117.01052211995028 112.31430620078461 l 39.417408845844854 28.53516422050119 a69.66197403734726,69.66197403734726 0 0,0 -0.7095502646853515,0.962641207119688 l -38.92175656157567 -29.207611736889756" fill="#ff2403" stroke="none" /><path d="M 116.57777611688842 112.89097897827486 l 41.1315653669393 31.984154011380987 a73.10366376137611,73.10366376137611 0 0,0 -0.7788449345958,0.9840451320051411 l -40.57645400170193 -32.68551908730081" fill="#ffe315" stroke="none" /><path d="M 115.41159269507618 114.26474011684316 l 35.277820171275344 32.65262368325797 a69.0699326964091,69.0699326964091 0 0,0 -0.8128681395307935,0.8632377951062559 l -34.71209619800829 -33.253402938308724" fill="#ff0000" stroke="none" /><path d="M 115.16444852881244 114.52719865689866 l 38.57330708487177 36.95235562380004 a74.41700670771066,74.41700670771066 0 0,0 -0.8916333860242343,0.9148944026749463 l -37.93328689769673 -37.60907271854273" fill="#d9ff1c" stroke="none" /><path d="M 113.86319453409587 115.77377054828091 l 36.37673444454135 41.39004621284889 a76.10356371733545,76.10356371733545 0 0,0 -0.9886958973935298,0.8540119681112057 l -35.66085906738496 -42.00840231342481" fill="#8bff24" stroke="none" /><line stroke="#e1ed5e" stroke-width="0.3" x1="143.1302829299769" x2="145.66735839644613" y1="173.24464959558577" y2="177.55315839532614" /><path d="M 143.63769802327073 174.10635135553383 a86.0,86.0 0 0,1 -40.68552437913181,11.842963189579606" fill="none" id="id30" stroke="none" /><text fill="#e1ed5e" style="font-size:6.75px; font-family:Arial;" text-anchor="middle"><textPath startOffset="21.407464694133747" xlink:href="#id30">June</textPath></text><path d="M 110.02825361518725 118.45085714620011 l 26.477771338131728 48.71611700862413 a76.44666294225783,76.44666294225783 0 0,0 -1.1583896735248593,0.6167772545941524 l -25.637592848820315 -49.16346473094085" fill="#7bff26" stroke="none" /><path d="M 109.71004243097381 118.62028667847754 l 28.888071720410014 55.39668655891843 a83.47650413900098,83.47650413900098 0 0,0 -1.2762872907403184,0.6516813845589897 l -27.932857207956115 -55.88442589515026" fill="#4ae6ff" stroke="none" /><path d="M 107.407793817531 119.65005319985036 l 22.223381452592985 58.95015959955109 a84.0,84.0 0 0,0 -1.353643393383492,0.49707660396511244 l -21.208148907555366 -59.32296705252492" fill="#4dd2ff" stroke="none" /><path d="M 107.06938296918513 119.77432235084164 l 20.945727895400836 58.588928776681456 a83.22046361340637,83.22046361340637 0 0,0 -1.349337500385817,0.46936962632097307 l -19.93688462297 -58.93985683557102" fill="#49f0ff" stroke="none" /><path d="M 104.29559338865022 120.5559693870025 l 10.82850506539095 51.8183167008555 a73.93764697888788,73.93764697888788 0 0,0 -1.2446294313622934,0.2489607441526438 l -9.937379148497696 -51.996566841671005" fill="#f1ff19" stroke="none" /><line stroke="#e1ed5e" stroke-width="0.3" x1="101.45913802915013" x2="101.54496967792366" y1="184.9874750549273" y2="189.98673829345242" /><path d="M 101.47630435890484 185.9873277026323 a86.0,86.0 0 0,1 -42.54439059252881,-10.42667462771756" fill="none" id="id31" stroke="none" /><text fill="#e1ed5e" style="font-size:6.75px; font-family:Arial;" text-anchor="middle"><textPath startOffset="22.145653131862474" xlink:href="#id31">July</textPath></text><path d="M 99.63950707515114 120.99690560180557 l -0.9161768957884009 53.362711080918174 a74.37057535768116,74.37057535768116 0 0,0 -1.276293580181272,-0.03287279530045684 l 1.832083790040417 -53.33912056826767" fill="#dcff1b" stroke="none" /><path d="M 99.27912038922189 120.98762331915562 l -1.8169876601682884 52.89961321836315 a73.93080882444198,73.93080882444198 0 0,0 -1.26799870650039,-0.054453320319771625 l 2.724812127269517 -52.86062732961755" fill="#f1ff19" stroke="none" /><path d="M 98.55909050195518 120.95050786540614 l -3.763632301757519 54.7223876638051 a75.85166031881442,75.85166031881442 0 0,0 -1.2982589769694668,-0.10049345558105229 l 4.702460273502222 -54.64971644122899" fill="#96ff23" stroke="none" /><line stroke="#e1ed5e" stroke-width="0.3" x1="58.13341422392154" x2="55.67067388415222" y1="173.97424548756322" y2="178.32567169271397" /><path d="M 57.64086615596768 174.84453072859336 a86.0,86.0 0 0,1 -31.369924170532247,-30.572349798747897" fill="none" id="id32" stroke="none" /><text fill="#e1ed5e" style="font-size:6.75px; font-family:Arial;" text-anchor="middle"><textPath startOffset="22.145653131862474" xlink:href="#id32">August</textPath></text><line stroke="#e1ed5e" stroke-width="0.3" x1="26.387840678322732" x2="22.057713659400548" y1="142.50000000000003" y2="145.00000000000006" /><path d="M 25.521815274538298 143.00000000000003 a86.0,86.0 0 0,1 -11.493303480769221,-40.785679425670985" fill="none" id="id33" stroke="none" /><text fill="#e1ed5e" style="font-size:6.75px; font-family:Arial;" text-anchor="middle"><textPath startOffset="21.40746469413373" xlink:href="#id33">September</textPath></text><line stroke="#e1ed5e" stroke-width="0.3" x1="15.003131293944662" x2="10.003315487706104" y1="100.72959589197737" y2="100.7725132973878" /><path d="M 14.003168132696942 100.73817937305945 a86.0,86.0 0 0,1 10.791469493833604,-42.45332614584628" fill="none" id="id34" stroke="none" /><text fill="#e1ed5e" style="font-size:6.75px; font-family:Arial;" text-anchor="middle"><textPath startOffset="22.145653131862435" xlink:href="#id34">October</textPath></text><line stroke="#e1ed5e" stroke-width="0.3" x1="26.387840678322718" x2="22.05771365940052" y1="57.49999999999999" y2="54.99999999999999" /><path d="M 25.521815274538284 56.99999999999999 a86.0,86.0 0 0,1 29.574782752854787,-30.34633250058573" fill="none" id="id35" stroke="none" /><text fill="#e1ed5e" style="font-size:6.75px; font-family:Arial;" text-anchor="middle"><textPath startOffset="21.40746469413373" xlink:href="#id35">November</textPath></text><line stroke="#e1ed5e" stroke-width="0.3" x1="56.869717070023135" x2="54.33264160355391" y1="26.7553504044142" y2="22.446841604673864" /><path d="M 56.362301976729285 25.89364864446614 a86.0,86.0 0 0,1 42.16139366436587,-11.88097634709845" fill="none" id="id36" stroke="none" /><text fill="#e1ed5e" style="font-size:6.75px; font-family:Arial;" text-anchor="middle"><textPath startOffset="22.145653131862474" xlink:href="#id36">December</textPath></text></svg>